# Blender 5.1.2
# www.blender.org
mtllib cxleiteTriangulateMesh.mtl
o Cube
v 1.000000 2.489771 -1.000000
v 1.000000 -2.489771 -1.000000
v 1.000000 2.489771 1.000000
v 1.000000 -2.489771 1.000000
v -1.000000 2.489771 -1.000000
v -1.000000 -2.489771 -1.000000
v -1.000000 2.489771 1.000000
v -1.000000 -2.489771 1.000000
v -0.489158 2.517867 -0.861120
v -0.489158 2.736872 -0.861120
v -0.406894 2.517867 -0.853018
v -0.406894 2.736872 -0.853018
v -0.327791 2.517867 -0.829023
v -0.327791 2.736872 -0.829023
v -0.254890 2.517867 -0.790056
v -0.254890 2.736872 -0.790056
v -0.190991 2.517867 -0.737616
v -0.190991 2.736872 -0.737616
v -0.138551 2.517867 -0.673717
v -0.138551 2.736872 -0.673717
v -0.099585 2.517867 -0.600816
v -0.099585 2.736872 -0.600816
v -0.075589 2.517867 -0.521713
v -0.075589 2.736872 -0.521713
v -0.067487 2.517867 -0.439449
v -0.067487 2.736872 -0.439449
v -0.075589 2.517867 -0.357185
v -0.075589 2.736872 -0.357185
v -0.099585 2.517867 -0.278083
v -0.099585 2.736872 -0.278083
v -0.138551 2.517867 -0.205181
v -0.138551 2.736872 -0.205181
v -0.190991 2.517867 -0.141283
v -0.190991 2.736872 -0.141283
v -0.254890 2.517867 -0.088843
v -0.254890 2.736872 -0.088843
v -0.327791 2.517867 -0.049876
v -0.327791 2.736872 -0.049876
v -0.406894 2.517867 -0.025880
v -0.406894 2.736872 -0.025880
v -0.489158 2.517867 -0.017778
v -0.489158 2.736872 -0.017778
v -0.571422 2.517867 -0.025880
v -0.571422 2.736872 -0.025880
v -0.650524 2.517867 -0.049876
v -0.650524 2.736872 -0.049876
v -0.723426 2.517867 -0.088843
v -0.723426 2.736872 -0.088843
v -0.787324 2.517867 -0.141283
v -0.787324 2.736872 -0.141283
v -0.839765 2.517867 -0.205181
v -0.839765 2.736872 -0.205181
v -0.878731 2.517867 -0.278083
v -0.878731 2.736872 -0.278083
v -0.902727 2.517867 -0.357185
v -0.902727 2.736872 -0.357185
v -0.910829 2.517867 -0.439449
v -0.910829 2.736872 -0.439449
v -0.902727 2.517867 -0.521713
v -0.902727 2.736872 -0.521713
v -0.878731 2.517867 -0.600816
v -0.878731 2.736872 -0.600816
v -0.839765 2.517867 -0.673717
v -0.839765 2.736872 -0.673717
v -0.787324 2.517867 -0.737616
v -0.787324 2.736872 -0.737616
v -0.723426 2.517867 -0.790056
v -0.723426 2.736872 -0.790056
v -0.650524 2.517867 -0.829023
v -0.650524 2.736872 -0.829023
v -0.571422 2.517867 -0.853018
v -0.571422 2.736872 -0.853018
vn -0.0000 1.0000 -0.0000
vn -0.0000 -0.0000 1.0000
vn -1.0000 -0.0000 -0.0000
vn -0.0000 -1.0000 -0.0000
vn 1.0000 -0.0000 -0.0000
vn -0.0000 -0.0000 -1.0000
vn 0.0980 -0.0000 -0.9952
vn 0.2903 -0.0000 -0.9569
vn 0.4714 -0.0000 -0.8819
vn 0.6344 -0.0000 -0.7730
vn 0.7730 -0.0000 -0.6344
vn 0.8819 -0.0000 -0.4714
vn 0.9569 -0.0000 -0.2903
vn 0.9952 -0.0000 -0.0980
vn 0.9952 -0.0000 0.0980
vn 0.9569 -0.0000 0.2903
vn 0.8819 -0.0000 0.4714
vn 0.7730 -0.0000 0.6344
vn 0.6344 -0.0000 0.7730
vn 0.4714 -0.0000 0.8819
vn 0.2903 -0.0000 0.9569
vn 0.0980 -0.0000 0.9952
vn -0.0980 -0.0000 0.9952
vn -0.2903 -0.0000 0.9569
vn -0.4714 -0.0000 0.8819
vn -0.6344 -0.0000 0.7730
vn -0.7730 -0.0000 0.6344
vn -0.8819 -0.0000 0.4714
vn -0.9569 -0.0000 0.2903
vn -0.9952 -0.0000 0.0980
vn -0.9952 -0.0000 -0.0980
vn -0.9569 -0.0000 -0.2903
vn -0.8819 -0.0000 -0.4714
vn -0.7730 -0.0000 -0.6344
vn -0.6344 -0.0000 -0.7730
vn -0.4714 -0.0000 -0.8819
vn -0.2903 -0.0000 -0.9569
vn -0.0980 -0.0000 -0.9952
vt 0.237238 0.999997
vt 0.000005 0.765368
vt 0.237238 0.765368
vt 0.239174 0.764660
vt -0.000008 0.087952
vt 0.239174 0.087952
vt 0.949289 1.000018
vt 0.713008 0.327429
vt 0.949289 0.327429
vt 0.474974 0.999932
vt 0.238327 0.764987
vt 0.474974 0.764987
vt 0.712981 1.000031
vt 0.476576 0.327277
vt 0.712981 0.327277
vt 0.475571 0.764800
vt 0.240228 0.093750
vt 0.475571 0.093750
vt 0.705842 0.205734
vt 0.651998 0.305514
vt 0.651998 0.205734
vt 0.556913 0.211652
vt 0.619412 0.236304
vt 0.593524 0.295820
vt 0.584323 0.269164
vt 0.588978 0.244392
vt 0.565996 0.239374
vt 0.000005 0.999997
vt -0.000008 0.764660
vt 0.713008 1.000018
vt 0.238327 0.999932
vt 0.476576 1.000031
vt 0.240228 0.764800
vt 0.705842 0.305514
vt 0.584551 0.298412
vt 0.575219 0.299288
vt 0.565887 0.298412
vt 0.556913 0.295820
vt 0.548643 0.291611
vt 0.541394 0.285946
vt 0.535446 0.279043
vt 0.531025 0.271168
vt 0.528303 0.262623
vt 0.527384 0.253736
vt 0.528303 0.244850
vt 0.531025 0.236304
vt 0.535446 0.228429
vt 0.541394 0.221527
vt 0.548643 0.215862
vt 0.565887 0.209060
vt 0.575219 0.208185
vt 0.584551 0.209060
vt 0.593524 0.211652
vt 0.601794 0.215862
vt 0.609043 0.221527
vt 0.614992 0.228429
vt 0.622134 0.244850
vt 0.623053 0.253736
vt 0.622134 0.262623
vt 0.619412 0.271168
vt 0.614992 0.279043
vt 0.609043 0.285946
vt 0.601794 0.291611
vt 0.563476 0.241587
vt 0.561405 0.244287
vt 0.559863 0.247371
vt 0.558909 0.250720
vt 0.558579 0.254206
vt 0.558886 0.257694
vt 0.559819 0.261050
vt 0.561341 0.264146
vt 0.563394 0.266862
vt 0.565899 0.269094
vt 0.568760 0.270756
vt 0.571868 0.271785
vt 0.575101 0.272141
vt 0.578337 0.271810
vt 0.581451 0.270804
vt 0.586842 0.266951
vt 0.588913 0.264250
vt 0.590456 0.261166
vt 0.591410 0.257817
vt 0.591740 0.254332
vt 0.591433 0.250844
vt 0.590500 0.247487
vt 0.586925 0.241676
vt 0.584420 0.239443
vt 0.581558 0.237781
vt 0.578451 0.236752
vt 0.575218 0.236397
vt 0.571982 0.236728
vt 0.568868 0.237733
s 0
usemtl Material
f 5/1/1 3/2/1 1/3/1
f 3/4/2 8/5/2 4/6/2
f 7/7/3 6/8/3 8/9/3
f 2/10/4 8/11/4 6/12/4
f 1/13/5 4/14/5 2/15/5
f 5/16/6 2/17/6 6/18/6
f 5/1/1 7/28/1 3/2/1
f 3/4/2 7/29/2 8/5/2
f 7/7/3 5/30/3 6/8/3
f 2/10/4 4/31/4 8/11/4
f 1/13/5 3/32/5 4/14/5
f 5/16/6 1/33/6 2/17/6
usemtl Material.001
f 10/19/7 11/20/7 9/21/7
f 12/19/8 13/20/8 11/21/8
f 14/19/9 15/20/9 13/21/9
f 16/19/10 17/20/10 15/21/10
f 18/19/11 19/20/11 17/21/11
f 20/19/12 21/20/12 19/21/12
f 22/19/13 23/20/13 21/21/13
f 24/19/14 25/20/14 23/21/14
f 26/19/15 27/20/15 25/21/15
f 28/19/16 29/20/16 27/21/16
f 30/19/17 31/20/17 29/21/17
f 32/19/18 33/20/18 31/21/18
f 34/19/19 35/20/19 33/21/19
f 36/19/20 37/20/20 35/21/20
f 38/19/21 39/20/21 37/21/21
f 40/19/22 41/20/22 39/21/22
f 42/19/23 43/20/23 41/21/23
f 44/19/24 45/20/24 43/21/24
f 46/19/25 47/20/25 45/21/25
f 48/19/26 49/20/26 47/21/26
f 50/19/27 51/20/27 49/21/27
f 52/19/28 53/20/28 51/21/28
f 54/19/29 55/20/29 53/21/29
f 56/19/30 57/20/30 55/21/30
f 58/19/31 59/20/31 57/21/31
f 60/19/32 61/20/32 59/21/32
f 62/19/33 63/20/33 61/21/33
f 64/19/34 65/20/34 63/21/34
f 66/19/35 67/20/35 65/21/35
f 68/19/36 69/20/36 67/21/36
f 46/22/1 30/23/1 14/24/1
f 70/19/37 71/20/37 69/21/37
f 72/19/38 9/20/38 71/21/38
f 39/25/4 55/26/4 71/27/4
f 10/19/7 12/34/7 11/20/7
f 12/19/8 14/34/8 13/20/8
f 14/19/9 16/34/9 15/20/9
f 16/19/10 18/34/10 17/20/10
f 18/19/11 20/34/11 19/20/11
f 20/19/12 22/34/12 21/20/12
f 22/19/13 24/34/13 23/20/13
f 24/19/14 26/34/14 25/20/14
f 26/19/15 28/34/15 27/20/15
f 28/19/16 30/34/16 29/20/16
f 30/19/17 32/34/17 31/20/17
f 32/19/18 34/34/18 33/20/18
f 34/19/19 36/34/19 35/20/19
f 36/19/20 38/34/20 37/20/20
f 38/19/21 40/34/21 39/20/21
f 40/19/22 42/34/22 41/20/22
f 42/19/23 44/34/23 43/20/23
f 44/19/24 46/34/24 45/20/24
f 46/19/25 48/34/25 47/20/25
f 48/19/26 50/34/26 49/20/26
f 50/19/27 52/34/27 51/20/27
f 52/19/28 54/34/28 53/20/28
f 54/19/29 56/34/29 55/20/29
f 56/19/30 58/34/30 57/20/30
f 58/19/31 60/34/31 59/20/31
f 60/19/32 62/34/32 61/20/32
f 62/19/33 64/34/33 63/20/33
f 64/19/34 66/34/34 65/20/34
f 66/19/35 68/34/35 67/20/35
f 68/19/36 70/34/36 69/20/36
f 14/24/1 12/35/1 10/36/1
f 10/36/1 72/37/1 70/38/1
f 70/38/1 68/39/1 66/40/1
f 66/40/1 64/41/1 62/42/1
f 62/42/1 60/43/1 58/44/1
f 58/44/1 56/45/1 54/46/1
f 54/46/1 52/47/1 50/48/1
f 50/48/1 48/49/1 46/22/1
f 46/22/1 44/50/1 42/51/1
f 42/51/1 40/52/1 38/53/1
f 38/53/1 36/54/1 34/55/1
f 34/55/1 32/56/1 30/23/1
f 30/23/1 28/57/1 26/58/1
f 26/58/1 24/59/1 22/60/1
f 22/60/1 20/61/1 18/62/1
f 18/62/1 16/63/1 14/24/1
f 14/24/1 10/36/1 70/38/1
f 70/38/1 66/40/1 62/42/1
f 62/42/1 58/44/1 54/46/1
f 54/46/1 50/48/1 46/22/1
f 46/22/1 42/51/1 38/53/1
f 38/53/1 34/55/1 30/23/1
f 30/23/1 26/58/1 22/60/1
f 22/60/1 18/62/1 14/24/1
f 14/24/1 70/38/1 62/42/1
f 62/42/1 54/46/1 46/22/1
f 46/22/1 38/53/1 30/23/1
f 30/23/1 22/60/1 14/24/1
f 14/24/1 62/42/1 46/22/1
f 70/19/37 72/34/37 71/20/37
f 72/19/38 10/34/38 9/20/38
f 71/27/4 9/64/4 11/65/4
f 11/65/4 13/66/4 15/67/4
f 15/67/4 17/68/4 19/69/4
f 19/69/4 21/70/4 23/71/4
f 23/71/4 25/72/4 27/73/4
f 27/73/4 29/74/4 31/75/4
f 31/75/4 33/76/4 35/77/4
f 35/77/4 37/78/4 39/25/4
f 39/25/4 41/79/4 43/80/4
f 43/80/4 45/81/4 47/82/4
f 47/82/4 49/83/4 51/84/4
f 51/84/4 53/85/4 55/26/4
f 55/26/4 57/86/4 59/87/4
f 59/87/4 61/88/4 63/89/4
f 63/89/4 65/90/4 67/91/4
f 67/91/4 69/92/4 71/27/4
f 71/27/4 11/65/4 15/67/4
f 15/67/4 19/69/4 23/71/4
f 23/71/4 27/73/4 31/75/4
f 31/75/4 35/77/4 39/25/4
f 39/25/4 43/80/4 47/82/4
f 47/82/4 51/84/4 55/26/4
f 55/26/4 59/87/4 63/89/4
f 63/89/4 67/91/4 71/27/4
f 71/27/4 15/67/4 23/71/4
f 23/71/4 31/75/4 39/25/4
f 39/25/4 47/82/4 55/26/4
f 55/26/4 63/89/4 71/27/4
f 71/27/4 23/71/4 39/25/4
